<?xml version="1.0" encoding="utf-8"?>
<!-- Generator: Adobe Illustrator 25.2.0, SVG Export Plug-In . SVG Version: 6.00 Build 0)  -->
<svg version="1.1" id="katman_1" xmlns="http://www.w3.org/2000/svg" xmlns:xlink="http://www.w3.org/1999/xlink" x="0px" y="0px"
	 viewBox="0 0 560 400" style="enable-background:new 0 0 560 400;" xml:space="preserve">
<style type="text/css">
	.st0{clip-path:url(#SVGID_2_);}
	.st1{fill:#F04E44;}
	.st2{clip-path:url(#SVGID_4_);}
</style>
<g transform="matrix(2.54122 0 0 2.54122 92.572 131.071)">
	<g>
		<defs>
			<polyline id="SVGID_1_" points="-20.56,-10.74 -20.56,64.69 160.72,64.69 160.72,-10.74 			"/>
		</defs>
		<clipPath id="SVGID_2_">
			<use xlink:href="#SVGID_1_"  style="overflow:visible;"/>
		</clipPath>
		<g class="st0">
			<path class="st1" d="M27.05,19.18c0.66-0.47,1.35-0.88,2.06-1.33c0.53,0.54,1.02,1.07,1.49,1.63c-0.69,0.37-1.36,0.79-2,1.18
				C28.12,20.16,27.6,19.66,27.05,19.18 M24.3,16.92c0.63-0.52,1.33-1.04,2.09-1.55c0.57,0.49,1.12,0.96,1.65,1.45
				c-0.74,0.46-1.44,0.91-2.09,1.4C25.43,17.77,24.88,17.36,24.3,16.92z M74.6,11.58l-0.13-0.1c-16.82,0.68-32.59,5.94-43.2,12.48
				c-0.45-0.69-0.95-1.34-1.51-2.01c9.52-5.88,22.81-10.78,34.12-12.26L63.73,9.6c-12.11,1.22-23.95,4.9-32.38,9.46
				c-0.34-0.6-0.75-1.21-1.22-1.8c7.37-4.24,16.85-7.66,25.91-9.32l-0.13-0.09c-10.57,1.6-20.13,4.55-26.73,8.3
				c-0.48-0.53-1-1.03-1.57-1.55c0.69-0.42,1.41-0.82,2.16-1.22c0.33,0.34,0.65,0.68,0.95,1.03l0.37-0.35
				c-0.21-0.35-0.43-0.68-0.67-1.02c5.43-2.76,12.16-4.95,17.4-5.98l-0.14-0.09c-5.36,0.95-12.49,2.58-17.94,5.19
				C25.26,6.85,16.16,3.22,2.93,0.65L2.81,0.73c11.96,2.71,20.73,6.78,26.12,11.84c-0.78,0.4-1.53,0.82-2.22,1.28
				C20.37,8.62,9.14,3.93-5.66,1.75l-0.13,0.07C7.27,4.19,18.18,8.9,25.53,14.67c-0.73,0.56-1.38,1.13-1.93,1.75
				C15.44,10.64,2.52,5.77-14.76,3.54l-0.12,0.08C-0.59,5.9,14.3,10.94,24.41,19.44C23.08,20.58,22,21.78,21.25,23l0.43,0.45
				c1.1-1.07,2.35-2.11,3.74-3.13c0.53,0.45,1.04,0.94,1.53,1.42c-3.48,2.38-5.97,4.95-7.08,7.43l0.46,0.38
				c1.93-2.23,4.63-4.45,7.83-6.57c0.58,0.64,1.13,1.25,1.66,1.91c-6.52,4.3-10.83,9.04-11.79,13.4l0.51,0.35
				c2.75-4.64,7.16-8.69,12.44-12.25c0.82,1.15,1.58,2.33,2.24,3.59l0.46-0.3c-0.24-1.35-0.73-2.72-1.44-4.08
				C45.51,17.19,63.59,12.25,74.6,11.58L74.6,11.58z"/>
		</g>
	</g>
	<g>
		<defs>
			<polyline id="SVGID_3_" points="-20.56,-10.74 -20.56,64.69 160.72,64.69 160.72,-10.74 			"/>
		</defs>
		<clipPath id="SVGID_4_">
			<use xlink:href="#SVGID_3_"  style="overflow:visible;"/>
		</clipPath>
		<g class="st2">
			<path d="M33.57,53.11c-0.28,0.11-1.12,0.53-3.23,0.53c-4.53,0-6.86-3.31-6.86-7.66c0-4.35,2.33-7.66,6.78-7.66
				c1.95,0,2.97,0.42,3.31,0.56l-0.15,2.48c-0.26-0.16-1.07-0.77-2.83-0.77c-2.26,0-4.2,1.55-4.2,5.4c0,3.86,1.95,5.4,4.2,5.4
				c1.33,0,2.2-0.32,2.82-0.77L33.57,53.11z M41.37,52.17c-0.35,0.39-1.3,1.42-3.05,1.42c-1.94,0-3.31-1.17-3.31-3.22
				c0-2.97,2.62-3.73,5.31-3.73h1.02v-0.41c0-1.08-0.53-2.08-2.05-2.08c-1.32,0-2.5,0.63-3.01,1.06l-0.15-2.13
				c0.75-0.35,1.78-0.81,3.31-0.81c3.29,0,4.38,1.62,4.38,4.14v5.07c0,0.79,0.09,1.51,0.14,1.93h-2.39
				c-0.13-0.42-0.15-0.95-0.15-1.24L41.37,52.17z M87.04,52.17c-0.35,0.39-1.3,1.42-3.05,1.42c-1.94,0-3.33-1.17-3.33-3.22
				c0-2.97,2.64-3.73,5.31-3.73h1.02v-0.41c0-1.08-0.53-2.08-2.05-2.08c-1.32,0-2.5,0.63-3.01,1.06l-0.15-2.13
				c0.74-0.35,1.78-0.81,3.31-0.81c3.3,0,4.36,1.62,4.36,4.14v5.07c0,0.79,0.09,1.51,0.16,1.93h-2.38
				c-0.13-0.42-0.16-0.95-0.16-1.24L87.04,52.17z M62.19,37.43v14.11c0,0.79,0.02,1.47,0.09,1.87h-2.49
				c-0.04-0.31-0.08-0.88-0.08-1.42h-0.06c-0.15,0.31-0.85,1.6-2.93,1.6c-2.74,0-3.87-2.61-3.87-5.65c0-3.58,1.35-5.67,4.08-5.67
				c1.78,0,2.41,1.06,2.57,1.28h0.05v-6.13H62.19z M134.3,42.43h2.25v1.08h-2.25v7.24c0,0.88,0.11,1.72,1.27,1.72
				c0.52,0,0.78-0.12,0.98-0.18v1.12c-0.13,0.07-0.47,0.16-1.27,0.16c-1.9,0-2.29-1.24-2.29-2.47v-7.58h-1.66v-1.08H133v-2.2
				l1.3-0.37L134.3,42.43z M124.17,52.09c-0.28,0.37-0.88,1.48-2.98,1.48c-2.06,0-3.23-1.29-3.23-3.24c0-2.8,2.38-3.52,5.21-3.52
				h0.94v-0.89h0c0-1.51-0.54-2.47-2.39-2.47c-1.48,0-2.53,1.04-2.66,1.15l-0.2-1.33c0.62-0.39,1.53-0.97,2.97-0.97
				c3.07,0,3.59,2.23,3.59,3.38v5.29c0,0.82,0.06,1.64,0.13,2.45h-1.27l-0.07-1.32L124.17,52.09z M109.99,48.34
				c0,4.06,2.66,4.11,3.15,4.11c0.72,0,1.75-0.35,2.38-0.91l0.07,1.4c-0.53,0.29-1.25,0.63-2.57,0.63c-4.32,0-4.45-4.53-4.45-5.64
				c0-3.75,1.42-5.64,3.87-5.64c2.71,0,3.89,2.15,3.89,6.05L109.99,48.34z M46.41,44.26c0-0.69-0.03-1.32-0.09-1.83h2.39
				c0.02,0.67,0.07,0.86,0.07,1.52h0.04c0.21-0.47,0.72-1.68,2.81-1.68c0.17,0,0.3,0.03,0.45,0.06v2.45
				c-0.11-0.03-0.39-0.09-0.75-0.09c-1.09,0-2.28,0.67-2.28,2.72v5.99h-2.65L46.41,44.26z M70.21,44.26c0-0.69-0.02-1.32-0.09-1.83
				h2.49c0.02,0.35,0.07,1.12,0.07,1.39h0.04c0.22-0.34,0.92-1.55,2.88-1.55c2.29,0,3.31,1.46,3.31,3.61v7.52h-2.65v-7.1
				c0-1.35-0.8-1.86-1.7-1.86c-0.88,0-1.7,0.48-1.7,1.86v7.1h-2.65V44.26z M98.96,53.41h-1.34V37.43h1.34v6.83h5.86v-6.83h1.34
				v15.98h-1.34v-7.98h-5.86V53.41z M129.6,37.43v15.98h-1.3V37.43H129.6z M94.74,37.43v15.98h-2.66V37.43H94.74z M67.52,53.41
				h-2.65V42.44h2.65V53.41z M139.66,37.43v6.01h0.02c0.31-0.39,0.98-1.15,2.65-1.15c2.06,0,3.2,1.68,3.2,3.21v7.91h-1.32V45.8
				c0-1.46-0.85-2.44-2.25-2.44c-1.4,0-2.3,0.94-2.3,2.44v7.61h-1.31V37.43H139.66z M124.11,47.89h-1.04v0
				c-2.31,0-3.72,0.69-3.72,2.41c0,1.09,0.68,2.11,2.14,2.11c0.59,0,2.63-0.24,2.63-3.23V47.89z M86.99,48.05h-0.97
				c-1.26,0-2.87,0.38-2.87,2.06c0,1,0.66,1.68,1.67,1.68c1.42,0,2.16-1.16,2.16-2.56L86.99,48.05z M41.32,48.05h-0.97
				c-1.26,0-2.88,0.38-2.88,2.06c0,1,0.66,1.68,1.69,1.68c1.41,0,2.16-1.16,2.16-2.56V48.05z M57.45,51.65c1.56,0,2.1-1.69,2.1-3.76
				c0-2.13-0.61-3.68-2.05-3.68c-1.48,0-2,1.42-2,3.61C55.5,50.38,55.91,51.65,57.45,51.65L57.45,51.65z M114.89,47.18
				c0-2.36-0.96-3.74-2.44-3.74c-1.68,0-2.46,1.58-2.46,3.74H114.89z M67.56,40.36h-2.73v-2.58h2.73V40.36z"/>
		</g>
	</g>
</g>
</svg>
